<svg width="225" height="60" viewBox="0 0 225 60" fill="none" xmlns="http://www.w3.org/2000/svg"><g clip-path="url(#clip0_1_1414)" fill="#fff"><path d="M46.345 33.034l.07-7.379c0-9.655-4.264-13.724-10.695-13.724-6.011 0-9.786 4.276-11.953 8.759-1.258-6.138-5.033-8.76-10.206-8.76-6.291 0-10.066 4.622-12.233 9.311l.07-8.207c0-.138-.07-.207-.21-.207H.21c-.14 0-.21.07-.21.207l.14 20.07L0 48.068c0 .138.07.207.21.207h.978c.14 0 .21-.07.21-.207l-.07-15.035v-9.586c2.796-6.207 6.361-10.345 12.093-10.345 5.662 0 9.507 3.38 9.507 12.759v7.172l-.07 15.035c0 .138.07.207.21.207h.978c.14 0 .21-.07.21-.207l-.07-15.035.07-7.379c0-1.172-.07-2.276-.21-3.31 2.727-5.586 6.082-9.173 11.534-9.173 5.662 0 9.507 3.38 9.507 12.69v7.241l-.07 14.966c0 .138.07.207.21.207h.979c.14 0 .21-.07.21-.207l-.07-15.035zM57.377 60h.84c.139 0 .209 0 .279-.138l16.567-46.828c.07-.138 0-.276-.21-.276h-.979c-.14 0-.21.07-.28.139L61.992 46.275 48.92 12.895c-.07-.069-.14-.138-.28-.138h-.978c-.21 0-.21.139-.21.276l13.98 35.173-4.194 11.586c-.07.138 0 .207.14.207zM79.09 30.207c0-8.62 3.564-15.586 11.673-15.586 7.27 0 11.534 6.138 11.463 16.276-.069 10.206-4.613 15.379-11.603 15.379-7.969 0-11.534-7.173-11.534-16.07zm26.003 18.069c.209 0 .35-.138.35-.345l-.141-28.552.141-19.034c0-.207-.141-.345-.35-.345h-2.867c-.209 0-.348.138-.348.345l.069 19.103C99.64 14.621 95.517 12 89.994 12c-9.297 0-14.4 8.345-14.4 18.552 0 10.345 5.033 18.413 14.4 18.413 5.732 0 9.856-2.965 12.093-7.793l-.14 6.759c0 .207.14.345.35.345h2.796zm30.889-12.552c-.21 0-.349.138-.42.345-1.117 6.414-4.753 10.276-11.324 10.276-8.528 0-12.862-5.862-12.862-15.862l27.472-.07c.21 0 .35-.137.35-.344C139.058 18.621 133.326 12 123.749 12c-9.647 0-15.798 7.724-15.798 18.62 0 10.897 5.593 18.415 16.217 18.415 8.668 0 13.561-5.035 14.819-12.966.071-.207-.069-.345-.278-.345h-2.727zm-.49-8.069h-23.976c.839-7.93 5.103-12.965 12.233-12.965 7.69 0 11.674 5.793 11.743 12.965zm35.78 7.862c0-.207-.14-.345-.349-.345h-2.587c-.21 0-.35.138-.35.345-.629 6.552-4.544 10.828-11.743 10.828-8.389-.07-12.303-6.07-12.303-15.724 0-9.655 3.984-15.862 12.373-15.862 6.571 0 10.346 3.655 11.184 9.724.07.207.209.345.42.345h2.586c.209 0 .35-.207.35-.345C170.154 17.035 164.98 12 156.313 12c-10.416 0-15.868 7.517-15.868 18.62 0 11.104 5.452 18.415 15.728 18.415 9.297 0 14.47-5.725 15.099-13.518zm33.14-4.965c0-11.104-5.732-18.552-16.077-18.552-10.415 0-16.078 7.448-16.078 18.552 0 11.103 5.663 18.483 16.078 18.483 10.345 0 16.077-7.449 16.077-18.483zm-28.66 0c0-9.655 4.195-15.793 12.583-15.862 8.318 0 12.513 6.275 12.513 15.862 0 9.655-4.125 15.793-12.513 15.793-8.319 0-12.583-6.138-12.583-15.793zm34.359 17.724c.209 0 .349-.138.349-.345l-.14-21.172c.909-7.863 6.432-11.449 11.744-11.449 1.049 0 1.887.138 2.586.345.211 0 .35-.138.35-.276v-2.276a.518.518 0 00-.35-.482c-.699-.207-1.677-.276-2.656-.276-4.893 0-9.367 2.69-11.813 7.241l.279-6.483c0-.207-.14-.345-.349-.345h-2.866c-.21 0-.35.139-.35.345l.14 16.828-.14 18c0 .207.14.345.35.345h2.866z"/></g><defs><clipPath id="clip0_1_1414"><path fill="#fff" d="M0 0h225v60H0z"/></clipPath></defs></svg>