<svg width="225" height="60" viewBox="0 0 225 60" fill="none" xmlns="http://www.w3.org/2000/svg">
<g clip-path="url(#clip0_1_1414)">
<path d="M46.3453 33.0344L46.4152 25.6551C46.4152 15.9999 42.1512 11.9309 35.7202 11.9309C29.7085 11.9309 25.9338 16.2068 23.7668 20.6896C22.5085 14.5516 18.7338 11.9309 13.561 11.9309C7.26985 11.9309 3.49512 16.5516 1.32814 21.2413L1.39805 13.0344C1.39805 12.8965 1.32814 12.8275 1.18834 12.8275H0.209708C0.0699025 12.8275 0 12.8965 0 13.0344L0.139805 33.1034L0 48.0689C0 48.2068 0.0699025 48.2758 0.209708 48.2758H1.18834C1.32814 48.2758 1.39805 48.2068 1.39805 48.0689L1.32814 33.0344V23.4482C4.12424 17.2413 7.68926 13.1033 13.4213 13.1033C19.0834 13.1033 22.928 16.4827 22.928 25.862V33.0344L22.858 48.0689C22.858 48.2068 22.928 48.2758 23.0678 48.2758H24.0464C24.1863 48.2758 24.2562 48.2068 24.2562 48.0689L24.1863 33.0344L24.2562 25.6551C24.2562 24.4827 24.1863 23.3792 24.0464 22.3447C26.7727 16.7585 30.1279 13.1723 35.5803 13.1723C41.2424 13.1723 45.0871 16.5516 45.0871 25.862V33.1034L45.0172 48.0689C45.0172 48.2068 45.0871 48.2758 45.2268 48.2758H46.2055C46.3453 48.2758 46.4152 48.2068 46.4152 48.0689L46.3453 33.0344Z" fill="white"/>
<path d="M57.3773 59.9999H58.2161C58.3559 59.9999 58.4258 59.9999 58.4957 59.862L75.0626 13.0344C75.1325 12.8965 75.0626 12.7585 74.8529 12.7585H73.8742C73.7345 12.7585 73.6646 12.8275 73.5946 12.8965L61.9908 46.2758L48.9191 12.8965C48.8492 12.8275 48.7793 12.7585 48.6394 12.7585H47.6608C47.4512 12.7585 47.4512 12.8965 47.4512 13.0344L61.4316 48.2068L57.2375 59.793C57.1676 59.9309 57.2375 59.9999 57.3773 59.9999Z" fill="white"/>
<path d="M79.0891 30.2069C79.0891 21.5862 82.6541 14.6207 90.7628 14.6207C98.0327 14.6207 102.297 20.7586 102.226 30.8966C102.157 41.1035 97.6133 46.2759 90.623 46.2759C82.6541 46.2759 79.0891 39.1035 79.0891 30.2069ZM105.093 48.2759C105.302 48.2759 105.443 48.1379 105.443 47.931L105.302 19.3793L105.443 0.344828C105.443 0.137934 105.302 0 105.093 0H102.226C102.017 0 101.878 0.137934 101.878 0.344828L101.947 19.4483C99.6404 14.6207 95.5162 12 89.9939 12C80.6969 12 75.594 20.3448 75.594 30.5517C75.594 40.8966 80.627 48.9655 89.9939 48.9655C95.7259 48.9655 99.8502 46 102.087 41.1724L101.947 47.931C101.947 48.1379 102.087 48.2759 102.297 48.2759H105.093Z" fill="white"/>
<path d="M135.982 35.7241C135.772 35.7241 135.633 35.8621 135.562 36.069C134.445 42.4828 130.809 46.3448 124.238 46.3448C115.71 46.3448 111.376 40.4828 111.376 30.4828L138.848 30.4138C139.058 30.4138 139.198 30.2759 139.198 30.069C139.058 18.6207 133.326 12 123.749 12C114.102 12 107.951 19.7241 107.951 30.6207C107.951 41.5172 113.544 49.0345 124.168 49.0345C132.836 49.0345 137.729 44 138.987 36.069C139.058 35.8621 138.918 35.7241 138.709 35.7241H135.982ZM135.492 27.6552H111.516C112.355 19.7241 116.619 14.6897 123.749 14.6897C131.439 14.6897 135.423 20.4828 135.492 27.6552Z" fill="white"/>
<path d="M171.272 35.5172C171.272 35.3103 171.132 35.1724 170.923 35.1724H168.336C168.126 35.1724 167.986 35.3103 167.986 35.5172C167.357 42.069 163.442 46.3448 156.243 46.3448C147.854 46.2759 143.94 40.2759 143.94 30.6207C143.94 20.9655 147.924 14.7586 156.313 14.7586C162.884 14.7586 166.659 18.4138 167.497 24.4828C167.567 24.6897 167.706 24.8276 167.917 24.8276H170.503C170.712 24.8276 170.853 24.6207 170.853 24.4828C170.154 17.0345 164.98 12 156.313 12C145.897 12 140.445 19.5172 140.445 30.6207C140.445 41.7241 145.897 49.0345 156.173 49.0345C165.47 49.0345 170.643 43.3103 171.272 35.5172Z" fill="white"/>
<path d="M204.412 30.5517C204.412 19.4483 198.68 12 188.335 12C177.92 12 172.257 19.4483 172.257 30.5517C172.257 41.6552 177.92 49.0345 188.335 49.0345C198.68 49.0345 204.412 41.5862 204.412 30.5517ZM175.752 30.5517C175.752 20.8966 179.947 14.7586 188.335 14.6897C196.653 14.6897 200.848 20.9655 200.848 30.5517C200.848 40.2069 196.723 46.3448 188.335 46.3448C180.016 46.3448 175.752 40.2069 175.752 30.5517Z" fill="white"/>
<path d="M210.111 48.2758C210.32 48.2758 210.46 48.1378 210.46 47.9309L210.32 26.7585C211.229 18.8965 216.752 15.3102 222.064 15.3102C223.113 15.3102 223.951 15.4482 224.65 15.6551C224.861 15.6551 225 15.5171 225 15.3792V13.1033C225 12.8965 224.861 12.6896 224.65 12.6206C223.951 12.4137 222.973 12.3447 221.994 12.3447C217.101 12.3447 212.627 15.0344 210.181 19.5861L210.46 13.1033C210.46 12.8965 210.32 12.7585 210.111 12.7585H207.245C207.035 12.7585 206.895 12.8965 206.895 13.1033L207.035 29.9309L206.895 47.9309C206.895 48.1378 207.035 48.2758 207.245 48.2758H210.111Z" fill="white"/>
</g>
<defs>
<clipPath id="clip0_1_1414">
<rect width="225" height="60" fill="white"/>
</clipPath>
</defs>
</svg>
